<svg width="64" height="64" viewBox="0 0 64 64" fill="none" xmlns="http://www.w3.org/2000/svg">
<circle opacity="0.5" cx="32" cy="32" r="32" fill="#FDAF67"/>
<path d="M17.4145 54V9.2H33.9905C37.5745 9.2 40.5398 9.79733 42.8865 10.992C45.2332 12.1867 46.9825 13.8293 48.1345 15.92C49.2865 18.0107 49.8625 20.3573 49.8625 22.96C49.8625 25.4347 49.3078 27.7173 48.1985 29.808C47.0892 31.856 45.3612 33.52 43.0145 34.8C40.6678 36.0373 37.6598 36.656 33.9905 36.656H25.6065V54H17.4145ZM25.6065 30H33.4785C36.3372 30 38.3852 29.3813 39.6225 28.144C40.9025 26.864 41.5425 25.136 41.5425 22.96C41.5425 20.7413 40.9025 19.0133 39.6225 17.776C38.3852 16.496 36.3372 15.856 33.4785 15.856H25.6065V30Z" fill="#FF577F"/>
<mask id="mask0" mask-type="alpha" maskUnits="userSpaceOnUse" x="17" y="9" width="33" height="46">
<path d="M17.4145 54V9.2H33.9905C37.5745 9.2 40.5398 9.79733 42.8865 10.992C45.2332 12.1867 46.9825 13.8293 48.1345 15.92C49.2865 18.0107 49.8625 20.3573 49.8625 22.96C49.8625 25.4347 49.3078 27.7173 48.1985 29.808C47.0892 31.856 45.3612 33.52 43.0145 34.8C40.6678 36.0373 37.6598 36.656 33.9905 36.656H25.6065V54H17.4145ZM25.6065 30H33.4785C36.3372 30 38.3852 29.3813 39.6225 28.144C40.9025 26.864 41.5425 25.136 41.5425 22.96C41.5425 20.7413 40.9025 19.0133 39.6225 17.776C38.3852 16.496 36.3372 15.856 33.4785 15.856H25.6065V30Z" fill="#FF577F"/>
</mask>
<g mask="url(#mask0)">
<path d="M-2.5 31C-17.9999 31.0002 -27.9772 43.3734 -20.6817 80.7342L128.818 98.2342C133.473 59.564 128.818 31.0057 104.818 41.7341C80.8182 52.4625 39.6533 24.0115 28.5766 20.0057C17.4999 15.9999 12.9999 30.9998 -2.5 31Z" fill="#001D84"/>
</g>
</svg>
