<svg height="512" viewBox="0 0 192 192" width="512" xmlns="http://www.w3.org/2000/svg" xmlns:xlink="http://www.w3.org/1999/xlink"><linearGradient id="New_Gradient_Swatch_1" gradientUnits="userSpaceOnUse" x1="88.963" x2="170.888" y1="184.963" y2="103.037"><stop offset="0" stop-color="#34cdfa"/><stop offset="1" stop-color="#e8d9f1"/></linearGradient><path d="m144 96h-96a48 48 0 0 0 0 96h96a48 48 0 0 0 0-96z" fill="#e6f9fe"/><path d="m152 176h-96a47.97 47.97 0 0 1 -46.185-61.04 47.967 47.967 0 0 0 38.185 77.04h96a48.075 48.075 0 0 0 46.185-34.96 47.944 47.944 0 0 1 -38.185 18.96z" fill="#ccf2fe"/><path d="m144 96h-48v96h48a48 48 0 0 0 0-96z" fill="url(#New_Gradient_Swatch_1)"/><circle cx="160" cy="128" fill="#fff" r="8"/><g fill="#67d9fb"><path d="m150.656 52.438a8 8 0 0 0 -6.656-12.438h-24v16h9.052l-7.708 11.563a8 8 0 0 0 6.656 12.437h24v-16h-9.052z"/><path d="m182.948 40 7.708-11.562a8 8 0 0 0 -6.656-12.438h-24v16h9.052l-7.708 11.563a8 8 0 0 0 6.656 12.437h24v-16z"/></g></svg>