<svg width="24" height="24" viewBox="0 0 24 24" fill="none" xmlns="http://www.w3.org/2000/svg">
<g clip-path="url(#clip0)">
<path fill-rule="evenodd" clip-rule="evenodd" d="M10 12C10 8.68629 12.6863 6 16 6C19.3137 6 22 8.68629 22 12C22 15.3137 19.3137 18 16 18C12.6863 18 10 15.3137 10 12ZM8.06189 11C8.19681 9.91806 8.54778 8.90322 9.07026 8L4 8C3.44772 8 3 7.55229 3 7C3 6.44772 3.44772 6 4 6L10.7084 6C12.1186 4.75527 13.9711 4 16 4C20.4183 4 24 7.58172 24 12C24 16.4183 20.4183 20 16 20C13.9711 20 12.1186 19.2447 10.7084 18L4 18C3.44772 18 3 17.5523 3 17C3 16.4477 3.44772 16 4 16L9.07026 16C8.54778 15.0968 8.19681 14.0819 8.06189 13L1 13C0.447715 13 -3.2555e-07 12.5523 -3.49691e-07 12C-3.73832e-07 11.4477 0.447715 11 1 11L8.06189 11ZM12 12C12 12.5523 12.4477 13 13 13L16.3699 13L16.0857 13.2526C15.673 13.6195 15.6358 14.2516 16.0027 14.6644C16.3697 15.0772 17.0017 15.1143 17.4145 14.7474L19.6644 12.7474C19.8779 12.5576 20 12.2856 20 12C20 11.7144 19.8779 11.4424 19.6644 11.2526L17.4145 9.25261C17.0017 8.88568 16.3697 8.92284 16.0027 9.33562C15.6358 9.74839 15.673 10.3805 16.0857 10.7474L16.3699 11L13 11C12.4477 11 12 11.4477 12 12Z" fill="#FF6464"/>
</g>
<defs>
<clipPath id="clip0">
<rect width="24" height="24" fill="white"/>
</clipPath>
</defs>
</svg>
