<svg width="24" height="24" viewBox="0 0 24 24" fill="none" xmlns="http://www.w3.org/2000/svg">
<g clip-path="url(#clip0)">
<path fill-rule="evenodd" clip-rule="evenodd" d="M9 21C4.02944 21 0 16.9706 0 12C0 7.02944 4.02944 3 9 3H14C14.5111 3 15.0122 3.0426 15.5 3.12444C11.2434 3.83856 8 7.54051 8 12C8 16.4595 11.2434 20.1614 15.5 20.8756C15.0122 20.9574 14.5111 21 14 21H9Z" fill="#FF6464" fill-opacity="0.3"/>
<path fill-rule="evenodd" clip-rule="evenodd" d="M15 5C11.134 5 8 8.13401 8 12C8 15.866 11.134 19 15 19C18.866 19 22 15.866 22 12C22 8.13401 18.866 5 15 5ZM6 12C6 16.9706 10.0294 21 15 21C19.9706 21 24 16.9706 24 12C24 7.02944 19.9706 3 15 3C10.0294 3 6 7.02944 6 12ZM12 13C11.4477 13 11 12.5523 11 12C11 11.4477 11.4477 11 12 11L15.3699 11L15.0857 10.7474C14.673 10.3805 14.6358 9.7484 15.0027 9.33563C15.3697 8.92285 16.0017 8.88569 16.4145 9.25262L18.6644 11.2526C18.8779 11.4424 19 11.7144 19 12C19 12.2856 18.8779 12.5576 18.6644 12.7474L16.4145 14.7474C16.0017 15.1143 15.3697 15.0772 15.0027 14.6644C14.6358 14.2516 14.673 13.6195 15.0857 13.2526L15.3699 13L12 13Z" fill="#FF6464"/>
</g>
<defs>
<clipPath id="clip0">
<rect width="24" height="24" fill="white"/>
</clipPath>
</defs>
</svg>
