<svg width="24" height="25" viewBox="0 0 24 25" fill="none" xmlns="http://www.w3.org/2000/svg">
<path fill-rule="evenodd" clip-rule="evenodd" d="M23.6218 12.9502C22.2897 7.77452 17.5914 3.9502 11.9999 3.9502C6.40836 3.9502 1.71006 7.77452 0.37793 12.9502C1.71006 18.1259 6.40836 21.9502 11.9999 21.9502C17.5914 21.9502 22.2897 18.1259 23.6218 12.9502ZM2.45711 12.9502C3.7312 17.0083 7.52431 19.9502 11.9999 19.9502C16.4754 19.9502 20.2686 17.0083 21.5426 12.9502C20.2686 8.89206 16.4754 5.9502 11.9999 5.9502C7.52431 5.9502 3.7312 8.89206 2.45711 12.9502ZM11.9999 16.9502C14.209 16.9502 15.9999 15.1593 15.9999 12.9502C15.9999 10.7411 14.209 8.9502 11.9999 8.9502C9.79074 8.9502 7.99988 10.7411 7.99988 12.9502C7.99988 15.1593 9.79074 16.9502 11.9999 16.9502ZM11.9999 14.9502C13.1044 14.9502 13.9999 14.0548 13.9999 12.9502C13.9999 11.8456 13.1044 10.9502 11.9999 10.9502C10.8953 10.9502 9.99988 11.8456 9.99988 12.9502C9.99988 14.0548 10.8953 14.9502 11.9999 14.9502Z" fill="#171717"/>
</svg>
