<svg width="231" height="261" viewBox="0 0 231 261" fill="none" xmlns="http://www.w3.org/2000/svg">
<path d="M224.533 118.35C219.652 127.381 213.228 135.573 205.626 142.469C203.366 144.519 200.942 146.563 198.629 148.697C193.244 153.66 188.464 159.1 187.785 166.166C186.872 175.685 194.02 185.376 190.636 194.32C188.561 199.803 183.083 203.163 177.755 205.604C169.457 209.409 160.609 212.005 151.574 213.291C139.487 215.009 125.812 214.935 117.194 223.582C115.056 225.729 110.014 223.905 107.18 222.831C104.346 221.757 101.976 219.719 99.9439 217.471C95.2014 212.22 94.863 203.733 91.4011 197.561C91.0141 196.873 90.5925 196.215 90.1361 195.591C84.0817 187.29 72.1812 184.586 61.747 185.695C50.5267 186.886 39.8981 191.413 28.7282 193.012C25.9396 193.412 22.9844 193.604 20.411 192.461C17.5426 191.188 15.6147 188.47 13.9835 185.788C8.03502 176.009 4.10288 163.865 8.13913 153.153C9.40415 149.797 11.4084 146.679 13.3363 143.568C14.5249 141.652 15.6841 139.737 16.6229 137.769C17.8879 135.122 18.7538 132.38 18.759 129.407C18.7764 118.223 6.90188 111.038 2.23399 100.876C-1.65997 92.3996 -0.138129 82.1701 4.29029 73.9588C8.71872 65.7476 15.7275 59.2444 23.0104 53.4168C35.7248 43.2428 51.2069 34.2606 67.3485 36.3948C84.3229 38.6382 97.0494 52.3012 110.451 62.9602C121.567 71.8055 134.42 79.1229 148.512 80.9142C151.008 81.2329 153.505 81.3732 156 81.3802C169.202 81.4131 182.383 77.6695 195.629 76.2784C200.144 75.8038 204.961 75.7449 209.535 76.4361C216.431 77.4789 222.775 80.2264 226.702 85.8323C233.267 95.2163 229.98 108.276 224.533 118.35Z" fill="#FDAF67"/>
<path d="M161.58 121.674C165.329 121.784 169.044 121.931 172.793 122.041" stroke="#FF577F" stroke-width="3" stroke-miterlimit="10" stroke-linecap="round" stroke-linejoin="round"/>
<path d="M167.646 117.446C167.046 120.337 166.408 123.195 165.808 126.086" stroke="#FF577F" stroke-width="3" stroke-miterlimit="10" stroke-linecap="round" stroke-linejoin="round"/>
<g clip-path="url(#clip0)">
<path d="M184.012 105.032C187.71 108.729 187.71 114.721 184.012 118.418L163.934 138.496C160.237 142.192 154.245 142.192 150.548 138.496C146.851 134.799 146.851 128.807 150.548 125.109L170.626 105.032C174.323 101.336 180.316 101.336 184.012 105.032Z" fill="#EBECED"/>
<path d="M160.476 115.184L150.549 125.11C146.851 128.808 146.851 134.8 150.549 138.497C154.245 142.194 160.238 142.194 163.935 138.497L173.86 128.57L160.476 115.184Z" fill="#3B97D3"/>
<path d="M173.306 129.129L159.924 115.748L160.476 115.196L173.857 128.577L173.306 129.129Z" fill="#2086BF"/>
<path d="M162.641 118.456L152.732 128.365C152.518 128.579 152.348 128.832 152.233 129.111C152.117 129.391 152.057 129.69 152.057 129.992C152.057 130.294 152.117 130.593 152.233 130.873C152.348 131.152 152.518 131.405 152.732 131.619C152.945 131.833 153.199 132.002 153.478 132.118C153.757 132.233 154.056 132.293 154.359 132.293C154.661 132.293 154.96 132.233 155.239 132.118C155.518 132.002 155.772 131.833 155.985 131.619L165.895 121.71L162.641 118.456Z" fill="#55A6DC"/>
<path d="M177.135 107.215C176.922 107.001 176.668 106.831 176.389 106.715C176.109 106.6 175.81 106.54 175.508 106.54C175.205 106.54 174.906 106.6 174.627 106.715C174.347 106.831 174.094 107.001 173.88 107.215L163.192 117.904L166.446 121.158L177.136 110.468C177.567 110.037 177.809 109.452 177.809 108.841C177.809 108.231 177.566 107.646 177.135 107.215Z" fill="#EFF0F1"/>
<path d="M166.451 121.162L165.9 121.713L162.647 118.461L163.199 117.909L166.451 121.162Z" fill="#4F9ED4"/>
</g>
<path d="M68.9894 85.1231C28.6793 85.1231 26.5198 -6.5977 81.1886 4.04813C88.008 4.04813 96.4564 -4.47611 108.428 3.21465C117.975 9.3521 120.741 23.938 118.051 33.5609C112.103 47.6543 96.608 85.1231 68.9894 85.1231Z" fill="black"/>
<path d="M126.765 180.329C126.916 198.439 151.012 232.233 129.568 260.344C89.6371 260.344 64.3296 254.244 64.3296 254.244C64.3296 254.244 46.0309 247.349 0 214.578C0 91.7911 45.6899 112.439 88.9551 112.439C131.501 112.401 126.424 141.951 126.765 180.329Z" fill="#1387F1"/>
<path d="M109.527 22.1572C116.914 29.9238 130.667 74.2498 101.76 81.7132C103.617 82.8119 72.5504 76.5229 72.5504 76.5229C72.5504 76.5229 59.0253 83.9106 51.5997 63.1872C48.2658 52.8445 60.2376 43.6004 66.2614 51.9731C80.1275 42.6533 71.1865 29.5828 75.6949 23.5969C94.7513 29.7343 109.527 22.1572 109.527 22.1572Z" fill="#F1DFDF"/>
<path d="M69.0271 70.6133L72.5504 76.5234L55.9187 116.455C55.9187 116.455 76.1874 139.565 89.5231 132.745C102.859 125.926 111.042 72.2803 111.042 72.2803L69.0271 70.6133Z" fill="#F1DFDF"/>
<path d="M65.0872 68.3773C62.511 63.2248 56.4493 57.4662 53.4943 58.3755L53.3806 57.9966C56.8282 56.9358 63.0793 63.4522 65.4661 68.2257L65.0872 68.3773Z" fill="black"/>
<path d="M77.1346 36.9703L76.8315 36.7051C80.4307 32.9923 88.0835 30.8329 92.5161 31.3254L92.4782 31.7421C88.1214 31.2117 80.658 33.3712 77.1346 36.9703Z" fill="black"/>
<path d="M103.579 27.2715L103.2 27.1957C103.276 26.8548 103.617 26.5896 104.261 26.3244C106.913 25.2636 114.907 24.809 117.066 26.2107L116.839 26.5517C115.172 25.453 107.709 25.3772 104.375 26.7032C103.693 26.9684 103.579 27.1957 103.579 27.2715Z" fill="black"/>
<path d="M111.043 53.1851L110.891 52.8063C112.179 52.2759 112.861 49.4344 112.975 48.8662C112.141 47.9948 104.488 40.0388 102.594 38.334C100.662 36.6292 99.8285 35.2653 100.056 34.0908L100.435 34.1666C100.245 35.1516 101.041 36.4397 102.821 38.0309C104.829 39.8115 113.24 48.5631 113.316 48.6389L113.391 48.7146L113.354 48.8283C113.354 48.9798 112.672 52.5411 111.043 53.1851Z" fill="black"/>
<path d="M103.541 63.4147C101.76 63.4147 99.7904 63.2632 97.5552 62.9222L97.6309 62.5433C111.194 64.6649 116.081 59.1715 116.46 57.9971L116.839 58.1107C116.384 59.3609 112.823 63.4147 103.541 63.4147Z" fill="black"/>
<path d="M96.608 83.38L96.5322 83.0011C102.139 82.1298 106.155 80.1218 108.542 78.6064C111.118 76.9394 112.368 75.4998 112.406 75.4619L112.709 75.7271C112.671 75.765 107.557 81.6751 96.608 83.38Z" fill="black"/>
<path d="M73.3084 20.6042L73.0811 20.3011C81.3401 14.1258 82.4009 10.1857 83.2344 7.04119L83.2723 6.88965L83.6511 7.00331L83.6132 7.15485C82.7419 10.3372 81.6811 14.3531 73.3084 20.6042Z" fill="black"/>
<path d="M109.982 13.7851C106.117 8.32955 98.5022 7.1551 87.3639 10.2996L87.2502 9.92075C98.578 6.73836 106.345 7.9507 110.323 13.5578L109.982 13.7851Z" fill="black"/>
<path d="M41.03 31.5155L40.6511 31.3639C45.1216 18.7859 53.4564 12.7242 59.6318 9.84494C66.6406 6.58679 73.4978 6.17005 76.3771 6.70044L76.3014 7.0793C73.46 6.58679 66.7163 7.00353 59.7833 10.2238C53.6837 13.0652 45.4626 19.089 41.03 31.5155Z" fill="black"/>
<path d="M56.4116 42.1234L56.0327 42.0097C56.4873 40.6458 56.9798 39.0546 57.4724 37.3498C59.9728 28.7877 63.4204 17.1189 73.1191 12.6484L73.2706 13.0273C63.7235 17.3841 60.3138 28.9771 57.8512 37.4634C57.3587 39.1304 56.8662 40.7595 56.4116 42.1234Z" fill="black"/>
<path d="M92.5164 52.3521C87.5913 52.3521 83.6133 48.3362 83.6133 43.449C83.6133 38.5618 87.6291 34.5459 92.5164 34.5459C97.4415 34.5459 101.419 38.5618 101.419 43.449C101.419 48.3362 97.4415 52.3521 92.5164 52.3521ZM92.5164 34.9248C87.8186 34.9248 83.9921 38.7512 83.9921 43.449C84.03 48.1468 87.8186 51.9353 92.5164 51.9353C97.2142 51.9353 101.041 48.1089 101.041 43.4111C101.041 38.7512 97.2142 34.9248 92.5164 34.9248Z" fill="black"/>
<path d="M115.702 45.7603C110.777 45.7603 106.799 41.7444 106.799 36.8572C106.799 31.97 110.815 27.9541 115.702 27.9541C120.628 27.9541 124.605 31.97 124.605 36.8572C124.605 41.7444 120.628 45.7603 115.702 45.7603ZM115.702 28.333C111.005 28.333 107.178 32.1594 107.178 36.8572C107.178 41.555 111.005 45.3814 115.702 45.3814C120.4 45.3814 124.227 41.555 124.227 36.8572C124.227 32.1594 120.4 28.333 115.702 28.333Z" fill="black"/>
<path d="M88.4246 42.6915L88.1973 42.3884C89.4854 41.3655 93.1224 39.7743 95.4713 40.3047L95.3955 40.6835C93.1982 40.191 89.6369 41.7443 88.4246 42.6915Z" fill="black"/>
<path d="M109.413 36.516L109.186 36.175C109.792 35.7582 113.429 33.6367 114.528 34.5838L114.263 34.8869C113.543 34.2807 110.474 35.7582 109.413 36.516Z" fill="black"/>
<path d="M91.4174 46.631C91.228 46.631 91.0765 46.5552 90.9249 46.4416C89.9399 45.6839 89.5989 42.5015 90.0157 41.3649L90.3945 41.5165C89.9778 42.5773 90.3566 45.4945 91.1522 46.1006C91.2659 46.1764 91.4553 46.29 91.7205 46.0627C92.8192 45.2293 92.5161 41.8574 92.3267 40.6451L92.7055 40.5693C92.7434 40.7588 93.5011 45.2293 91.9478 46.3658C91.7963 46.5552 91.6068 46.631 91.4174 46.631Z" fill="black"/>
<path d="M111.535 40.7209C111.346 40.7209 111.194 40.6451 111.043 40.5314C110.058 39.7737 109.717 36.5913 110.133 35.4548L110.512 35.6063C110.095 36.6671 110.474 39.5843 111.27 40.1905C111.384 40.2662 111.573 40.3799 111.838 40.1526C112.937 39.3191 112.634 35.9473 112.444 34.735L112.823 34.6592C112.861 34.8486 113.619 39.3191 112.065 40.4557C111.914 40.6451 111.725 40.7209 111.535 40.7209Z" fill="black"/>
<defs>
<clipPath id="clip0">
<rect width="39.0106" height="39.0094" fill="white" transform="translate(147.775 102.26)"/>
</clipPath>
</defs>
</svg>
