<svg width="286" height="75" viewBox="0 0 286 75" fill="none" xmlns="http://www.w3.org/2000/svg">
<rect width="286" height="75" rx="37.5" fill="#FDAF67" fill-opacity="0.4"/>
<rect x="123" width="163" height="75" rx="37.5" fill="#EBECED"/>
<rect x="123" width="49" height="75" fill="#EBECED"/>
<path d="M20.5708 60V15.2H37.1468C40.7308 15.2 43.6961 15.7973 46.0428 16.992C48.3894 18.1867 50.1388 19.8293 51.2908 21.92C52.4428 24.0107 53.0188 26.3573 53.0188 28.96C53.0188 31.4347 52.4641 33.7173 51.3548 35.808C50.2454 37.856 48.5174 39.52 46.1708 40.8C43.8241 42.0373 40.8161 42.656 37.1468 42.656H28.7628V60H20.5708ZM28.7628 36H36.6348C39.4934 36 41.5414 35.3813 42.7788 34.144C44.0588 32.864 44.6988 31.136 44.6988 28.96C44.6988 26.7413 44.0588 25.0133 42.7788 23.776C41.5414 22.496 39.4934 21.856 36.6348 21.856H28.7628V36ZM60.4458 60V15.2H68.6378V60H60.4458ZM78.3208 60V15.2H86.5128V53.6H106.353V60H78.3208ZM114.571 60V15.2H122.763V53.6H142.603V60H114.571Z" fill="#FF577F"/>
<path d="M171.813 60.768C167.333 60.768 163.407 59.7867 160.037 57.824C156.709 55.8613 154.085 53.152 152.165 49.696C150.287 46.1973 149.349 42.1653 149.349 37.6C149.349 33.0347 150.287 29.024 152.165 25.568C154.085 22.0693 156.709 19.3387 160.037 17.376C163.407 15.4133 167.333 14.432 171.813 14.432C176.25 14.432 180.154 15.4133 183.525 17.376C186.895 19.3387 189.519 22.0693 191.397 25.568C193.274 29.024 194.213 33.0347 194.213 37.6C194.213 42.1653 193.274 46.1973 191.397 49.696C189.519 53.152 186.895 55.8613 183.525 57.824C180.154 59.7867 176.25 60.768 171.813 60.768ZM171.813 53.408C176.079 53.408 179.471 52 181.989 49.184C184.549 46.368 185.829 42.5067 185.829 37.6C185.829 32.6933 184.549 28.832 181.989 26.016C179.471 23.2 176.079 21.792 171.813 21.792C167.546 21.792 164.133 23.2 161.573 26.016C159.013 28.832 157.733 32.6933 157.733 37.6C157.733 42.5067 159.013 46.368 161.573 49.184C164.133 52 167.546 53.408 171.813 53.408ZM209.596 60L197.756 15.2H206.524L214.588 50.848L224.06 15.2H233.084L242.3 50.848L250.364 15.2H259.196L247.036 60H237.308L228.412 26.784L219.26 60H209.596Z" fill="#001D84"/>
<mask id="mask0" mask-type="alpha" maskUnits="userSpaceOnUse" x="20" y="14" width="240" height="47">
<path d="M20.5708 60V15.2H37.1468C40.7308 15.2 43.6961 15.7973 46.0428 16.992C48.3894 18.1867 50.1388 19.8293 51.2908 21.92C52.4428 24.0107 53.0188 26.3573 53.0188 28.96C53.0188 31.4347 52.4641 33.7173 51.3548 35.808C50.2454 37.856 48.5174 39.52 46.1708 40.8C43.8241 42.0373 40.8161 42.656 37.1468 42.656H28.7628V60H20.5708ZM28.7628 36H36.6348C39.4934 36 41.5414 35.3813 42.7788 34.144C44.0588 32.864 44.6988 31.136 44.6988 28.96C44.6988 26.7413 44.0588 25.0133 42.7788 23.776C41.5414 22.496 39.4934 21.856 36.6348 21.856H28.7628V36ZM60.4458 60V15.2H68.6378V60H60.4458ZM78.3208 60V15.2H86.5128V53.6H106.353V60H78.3208ZM114.571 60V15.2H122.763V53.6H142.603V60H114.571Z" fill="#FF577F"/>
<path d="M171.813 60.768C167.333 60.768 163.407 59.7867 160.037 57.824C156.709 55.8613 154.085 53.152 152.165 49.696C150.287 46.1973 149.349 42.1653 149.349 37.6C149.349 33.0347 150.287 29.024 152.165 25.568C154.085 22.0693 156.709 19.3387 160.037 17.376C163.407 15.4133 167.333 14.432 171.813 14.432C176.25 14.432 180.154 15.4133 183.525 17.376C186.895 19.3387 189.519 22.0693 191.397 25.568C193.274 29.024 194.213 33.0347 194.213 37.6C194.213 42.1653 193.274 46.1973 191.397 49.696C189.519 53.152 186.895 55.8613 183.525 57.824C180.154 59.7867 176.25 60.768 171.813 60.768ZM171.813 53.408C176.079 53.408 179.471 52 181.989 49.184C184.549 46.368 185.829 42.5067 185.829 37.6C185.829 32.6933 184.549 28.832 181.989 26.016C179.471 23.2 176.079 21.792 171.813 21.792C167.546 21.792 164.133 23.2 161.573 26.016C159.013 28.832 157.733 32.6933 157.733 37.6C157.733 42.5067 159.013 46.368 161.573 49.184C164.133 52 167.546 53.408 171.813 53.408ZM209.596 60L197.756 15.2H206.524L214.588 50.848L224.06 15.2H233.084L242.3 50.848L250.364 15.2H259.196L247.036 60H237.308L228.412 26.784L219.26 60H209.596Z" fill="#001D84"/>
</mask>
<g mask="url(#mask0)">
<path d="M150.5 44C135 44.0002 125.023 56.3734 132.318 93.7342L281.818 111.234C286.473 72.564 281.818 44.0057 257.818 54.7341C233.818 65.4625 192.653 37.0115 181.577 33.0057C170.5 28.9999 166 43.9998 150.5 44Z" fill="#FF577F"/>
</g>
</svg>
