<svg width="143" height="137" viewBox="0 0 143 137" fill="none" xmlns="http://www.w3.org/2000/svg">
<g filter="url(#filter0_f)">
<path fill-rule="evenodd" clip-rule="evenodd" d="M85 93.0002C101.569 93.0002 115 84.5109 115 74.0387C115 63.5665 101.569 55.0771 85 55.0771C68.4315 55.0771 55 63.5665 55 74.0387C55 84.5109 68.4315 93.0002 85 93.0002Z" fill="#BABFCD"/>
</g>
<path fill-rule="evenodd" clip-rule="evenodd" d="M85 85.1538C101.569 85.1538 115 71.6879 115 55.0769C115 38.4659 101.569 25 85 25C68.4315 25 55 38.4659 55 55.0769C55 71.6879 68.4315 85.1538 85 85.1538Z" fill="url(#paint0_linear)"/>
<path d="M80 45L90.5 54.9474L80 66" stroke="#001D84" stroke-width="2" stroke-linecap="round" stroke-linejoin="round"/>
<defs>
<filter id="filter0_f" x="0.634365" y="0.711514" width="168.731" height="146.654" filterUnits="userSpaceOnUse" color-interpolation-filters="sRGB">
<feFlood flood-opacity="0" result="BackgroundImageFix"/>
<feBlend mode="normal" in="SourceGraphic" in2="BackgroundImageFix" result="shape"/>
<feGaussianBlur stdDeviation="27.1828" result="effect1_foregroundBlur"/>
</filter>
<linearGradient id="paint0_linear" x1="85" y1="25" x2="85" y2="85.1538" gradientUnits="userSpaceOnUse">
<stop stop-color="#FDAF67"/>
<stop offset="1" stop-color="#F7C649"/>
</linearGradient>
</defs>
</svg>
