<svg width="134" height="204" viewBox="0 0 134 204" fill="none" xmlns="http://www.w3.org/2000/svg">
<path fill-rule="evenodd" clip-rule="evenodd" d="M52.7387 22.3702C49.7683 20.3424 47.3705 17.5243 46.6572 13.8379C44.602 3.21608 59.8566 1.58641 64.1142 6.0845C68.3717 10.5826 71.6092 24.0187 68.1806 25.9452C66.8133 26.7135 63.4403 26.6327 59.7485 25.5842L65.4991 39.0557L53.7045 42.2161L52.7387 22.3702Z" fill="#B28B67"/>
<path fill-rule="evenodd" clip-rule="evenodd" d="M56.8332 12.3448C58.9549 18.4573 60.9843 21.254 62.9214 20.7349C65.8272 19.9563 67.8027 17.4673 69.0777 17.1257C70.0071 16.8767 70.1085 18.0851 69.7214 19.1049C69.4021 19.9462 67.1089 21.2892 67.4019 22.3824C67.6948 23.4757 69.4239 22.1059 69.5976 22.7543C69.885 23.8268 70.769 25.7512 68.8909 26.2544C66.9903 26.7637 61.3567 27.5374 59.6736 24.9917C58.5874 23.3487 57.1958 19.714 55.4988 14.0875C55.3799 14.1048 55.2607 14.1293 55.1417 14.1612C53.5132 14.5975 52.5436 16.2597 52.9761 17.8738C53.1957 18.6932 53.7344 19.3427 54.4246 19.7265C53.9981 20.8639 53.5006 22.0659 52.9001 23.3295C49.084 22.2541 45.106 17.1786 46.8492 10.8118C47.0162 7.87687 48.644 5.89696 50.843 4.59091C52.5555 3.27597 54.5313 2.65004 56.3478 2.67652C59.7325 2.07113 62.9556 2.2795 63.9522 2.64907C64.7843 5.75441 64.4241 6.83842 59.2171 8.14659C58.1217 9.15491 57.4499 10.5658 56.8332 12.3448Z" fill="#191847"/>
<path fill-rule="evenodd" clip-rule="evenodd" d="M59.447 83.2861L84.4188 146.246L101.167 199.474H107.781L82.1761 83.2861L59.447 83.2861Z" fill="#997659"/>
<path fill-rule="evenodd" clip-rule="evenodd" d="M54.4185 83.2861C54.1526 105.411 50.2746 135.198 49.655 136.577C49.2419 137.497 34.9828 149.189 6.87769 171.653L11.4329 176.509C44.5944 157.248 61.9424 146.334 63.4769 143.765C65.7788 139.911 73.2727 104.452 79.2894 83.2861H54.4185Z" fill="#B28B67"/>
<path fill-rule="evenodd" clip-rule="evenodd" d="M6.23848 170.023C4.70863 170.564 3.65477 171.076 3.0769 171.561C2.37407 172.151 1.44672 173.129 0.294841 174.494C0.978983 175.31 7.12748 182.637 18.7403 196.477C21.1082 195.463 21.8511 194.278 20.9689 192.921C20.0868 191.564 19.3648 190.427 18.8031 189.511L14.7847 175.472C14.7074 175.202 14.4257 175.046 14.1555 175.123C14.1509 175.124 14.1463 175.126 14.1417 175.127L11.9975 175.807C10.5099 175.114 9.4672 174.411 8.86948 173.699C8.38384 173.12 7.94692 172.125 7.5587 170.713L7.55871 170.713C7.40973 170.171 6.84968 169.852 6.3078 170.001C6.28444 170.008 6.26132 170.015 6.23848 170.023Z" fill="#E4E4E4"/>
<path fill-rule="evenodd" clip-rule="evenodd" d="M98.4593 197.067C97.8901 198.586 97.6055 199.723 97.6055 200.478C97.6055 201.395 97.7583 202.734 98.064 204.494C99.1283 204.494 108.694 204.494 126.76 204.494C127.506 202.029 127.075 200.698 125.469 200.501C123.862 200.305 122.527 200.127 121.465 199.969L108.127 194.023C107.87 193.908 107.57 194.024 107.455 194.28C107.453 194.285 107.451 194.289 107.449 194.294L106.592 196.373C105.105 197.067 103.896 197.414 102.966 197.414C102.211 197.414 101.167 197.109 99.8362 196.499L99.8362 196.499C99.3253 196.265 98.7214 196.489 98.4872 197C98.4771 197.022 98.4678 197.044 98.4593 197.067Z" fill="#E4E4E4"/>
<path fill-rule="evenodd" clip-rule="evenodd" d="M76.2366 193.991L107.682 190.592L84.3771 83.2861H56.2131L76.2366 193.991Z" fill="#69A1AC"/>
<path fill-rule="evenodd" clip-rule="evenodd" d="M13.3821 163.819L34.008 188.139C55.7329 164.503 68.3986 149.081 72.005 141.872C75.6115 134.663 78.8535 115.134 81.731 83.2861H50.0235C48.4516 111.305 47.3921 125.966 46.8448 127.27C46.2976 128.574 35.1433 140.757 13.3821 163.819Z" fill="#89C5CC"/>
<path fill-rule="evenodd" clip-rule="evenodd" d="M98.3939 71.6122L116.436 80.4726C120.976 80.8722 124.853 81.6817 128.067 82.9012C128.863 83.403 129.916 84.5181 127.029 84.8025C124.141 85.0869 121.116 85.5152 120.894 86.5516C120.671 87.5879 122.599 88.4404 122.034 89.8853C121.658 90.8485 118.77 89.1088 113.372 84.6659L96.3932 80.9259L98.3939 71.6122ZM37.0997 82.8356L47.5776 81.0303C44.7743 102.938 43.2271 114.573 42.9359 115.934C42.2806 118.998 45.5019 122.92 46.9637 125.075C43.8148 127.199 43.1853 121.5 39.2265 124.255C35.6131 126.771 33.202 130.599 28.164 128.609C27.5446 128.365 26.7043 127.181 28.006 125.91C31.2491 122.745 35.7855 117.405 36.2478 115.83C36.8782 113.681 37.1622 102.683 37.0997 82.8356Z" fill="#B28B67"/>
<path fill-rule="evenodd" clip-rule="evenodd" d="M59.1467 33.8694L63.349 32.3659C81.8609 43.3498 93.1446 68.7324 115.329 79.3209L111.617 86.007C76.6912 87.8229 62.5089 56.9361 59.1467 33.8694Z" fill="#E87613"/>
<path fill-rule="evenodd" clip-rule="evenodd" d="M49.8129 91.3794C67.1852 88.3162 79.9639 86.063 88.149 84.6197C89.9008 84.3108 89.1269 81.852 88.6497 80.6265C83.1424 66.4833 68.9477 52.6938 65.2684 31.8277L53.9063 32.0521C47.3409 48.3024 47.3557 66.8819 49.8129 91.3794Z" fill="#DDE3E9"/>
<path fill-rule="evenodd" clip-rule="evenodd" d="M42.6359 48.875C40.9489 48.6988 39.4882 47.8516 38.2537 46.3335C32.9325 39.7892 33.6876 35.5364 37.7753 33.4614C41.863 31.3865 46.1919 33.4125 53.0737 32.1991C53.448 32.1331 53.795 32.096 54.1145 32.0878L57.6109 31.674C73.449 63.4177 80.1286 85.282 77.6498 97.267L47.4763 102.587C46.42 107.051 45.3247 110.842 44.1903 113.963L35.9686 115.412C30.805 90.653 33.0275 68.4739 42.6359 48.875Z" fill="#FF9B21"/>
<path fill-rule="evenodd" clip-rule="evenodd" d="M51.0136 84.2262C53.3557 91.9596 55.9091 97.4217 58.6739 100.613L47.4763 102.587C48.7085 97.3806 49.8876 91.2604 51.0136 84.2262Z" fill="black" fill-opacity="0.1"/>
</svg>
